<svg width="444" height="68" viewBox="0 0 444 68" fill="none" xmlns="http://www.w3.org/2000/svg">
<g filter="url(#filter0_d_1_7)">
<path d="M115.634 24.9858C115.474 23.3816 114.792 22.1354 113.585 21.2472C112.379 20.3589 110.741 19.9148 108.673 19.9148C107.268 19.9148 106.081 20.1136 105.114 20.5114C104.146 20.8958 103.403 21.4328 102.886 22.1222C102.383 22.8116 102.131 23.5938 102.131 24.4688C102.104 25.1979 102.257 25.8343 102.588 26.3778C102.933 26.9214 103.403 27.392 104 27.7898C104.597 28.1742 105.286 28.5123 106.068 28.804C106.85 29.0824 107.686 29.321 108.574 29.5199L112.233 30.3949C114.009 30.7926 115.64 31.3229 117.125 31.9858C118.61 32.6487 119.896 33.464 120.983 34.4318C122.07 35.3996 122.912 36.5398 123.509 37.8523C124.118 39.1648 124.43 40.6695 124.443 42.3665C124.43 44.8589 123.794 47.0199 122.534 48.8494C121.288 50.6657 119.485 52.0777 117.125 53.0852C114.778 54.0795 111.948 54.5767 108.634 54.5767C105.346 54.5767 102.482 54.0729 100.043 53.0653C97.6165 52.0578 95.7206 50.5663 94.3551 48.5909C93.0028 46.6023 92.2936 44.143 92.2273 41.2131H100.56C100.652 42.5786 101.044 43.7187 101.733 44.6335C102.436 45.535 103.37 46.2178 104.537 46.6818C105.717 47.1326 107.049 47.358 108.534 47.358C109.992 47.358 111.259 47.1458 112.332 46.7216C113.42 46.2973 114.261 45.7074 114.858 44.9517C115.455 44.196 115.753 43.3277 115.753 42.3466C115.753 41.4318 115.481 40.6629 114.938 40.0398C114.407 39.4167 113.625 38.8864 112.591 38.4489C111.57 38.0114 110.317 37.6136 108.832 37.2557L104.398 36.142C100.964 35.3068 98.2528 34.0009 96.2642 32.2244C94.2756 30.4479 93.2879 28.0549 93.3011 25.0455C93.2879 22.5795 93.9441 20.4252 95.2699 18.5824C96.6089 16.7396 98.4451 15.3011 100.778 14.267C103.112 13.233 105.763 12.7159 108.733 12.7159C111.756 12.7159 114.394 13.233 116.648 14.267C118.915 15.3011 120.678 16.7396 121.938 18.5824C123.197 20.4252 123.847 22.5597 123.886 24.9858H115.634ZM164.3 13.2727V54H156.863L139.144 28.3665H138.846V54H130.235V13.2727H137.792L155.371 38.8864H155.729V13.2727H164.3ZM178.435 54H169.207L183.267 13.2727H194.364L208.403 54H199.176L188.974 22.5795H188.656L178.435 54ZM177.858 37.9915H199.653V44.7131H177.858V37.9915ZM213.305 54V13.2727H229.374C232.463 13.2727 235.094 13.8627 237.268 15.0426C239.443 16.2093 241.1 17.8333 242.24 19.9148C243.393 21.983 243.97 24.3693 243.97 27.0739C243.97 29.7784 243.387 32.1648 242.22 34.233C241.054 36.3011 239.363 37.9119 237.149 39.0653C234.948 40.2187 232.284 40.7955 229.155 40.7955H218.913V33.8949H227.763C229.42 33.8949 230.786 33.6098 231.859 33.0398C232.946 32.4564 233.755 31.6544 234.286 30.6335C234.829 29.5994 235.101 28.4129 235.101 27.0739C235.101 25.7216 234.829 24.5417 234.286 23.5341C233.755 22.5133 232.946 21.7244 231.859 21.1676C230.772 20.5975 229.393 20.3125 227.723 20.3125H221.916V54H213.305ZM271.657 24.9858C271.498 23.3816 270.815 22.1354 269.609 21.2472C268.402 20.3589 266.765 19.9148 264.697 19.9148C263.291 19.9148 262.105 20.1136 261.137 20.5114C260.169 20.8958 259.427 21.4328 258.91 22.1222C258.406 22.8116 258.154 23.5938 258.154 24.4688C258.128 25.1979 258.28 25.8343 258.612 26.3778C258.956 26.9214 259.427 27.392 260.023 27.7898C260.62 28.1742 261.309 28.5123 262.092 28.804C262.874 29.0824 263.709 29.321 264.597 29.5199L268.256 30.3949C270.033 30.7926 271.664 31.3229 273.148 31.9858C274.633 32.6487 275.919 33.464 277.006 34.4318C278.094 35.3996 278.935 36.5398 279.532 37.8523C280.142 39.1648 280.453 40.6695 280.467 42.3665C280.453 44.8589 279.817 47.0199 278.558 48.8494C277.311 50.6657 275.508 52.0777 273.148 53.0852C270.802 54.0795 267.971 54.5767 264.657 54.5767C261.369 54.5767 258.505 54.0729 256.066 53.0653C253.64 52.0578 251.744 50.5663 250.379 48.5909C249.026 46.6023 248.317 44.143 248.251 41.2131H256.583C256.676 42.5786 257.067 43.7187 257.756 44.6335C258.459 45.535 259.394 46.2178 260.56 46.6818C261.74 47.1326 263.073 47.358 264.558 47.358C266.016 47.358 267.282 47.1458 268.356 46.7216C269.443 46.2973 270.285 45.7074 270.881 44.9517C271.478 44.196 271.776 43.3277 271.776 42.3466C271.776 41.4318 271.504 40.6629 270.961 40.0398C270.431 39.4167 269.648 38.8864 268.614 38.4489C267.594 38.0114 266.341 37.6136 264.856 37.2557L260.421 36.142C256.987 35.3068 254.276 34.0009 252.288 32.2244C250.299 30.4479 249.311 28.0549 249.325 25.0455C249.311 22.5795 249.968 20.4252 251.293 18.5824C252.632 16.7396 254.469 15.3011 256.802 14.267C259.135 13.233 261.787 12.7159 264.756 12.7159C267.779 12.7159 270.417 13.233 272.671 14.267C274.938 15.3011 276.701 16.7396 277.961 18.5824C279.22 20.4252 279.87 22.5597 279.91 24.9858H271.657ZM286.259 54V13.2727H294.869V30.0767H312.349V13.2727H320.94V54H312.349V37.1761H294.869V54H286.259ZM335.06 54H325.832L339.892 13.2727H350.989L365.028 54H355.801L345.599 22.5795H345.281L335.06 54ZM334.483 37.9915H356.278V44.7131H334.483V37.9915ZM369.93 54V13.2727H385.999C389.074 13.2727 391.699 13.8229 393.874 14.9233C396.061 16.0104 397.725 17.5549 398.865 19.5568C400.018 21.5455 400.595 23.8854 400.595 26.5767C400.595 29.2812 400.012 31.608 398.845 33.5568C397.679 35.4924 395.988 36.9773 393.774 38.0114C391.573 39.0455 388.909 39.5625 385.78 39.5625H375.021V32.642H384.388C386.032 32.642 387.397 32.4167 388.484 31.9659C389.571 31.5152 390.38 30.839 390.911 29.9375C391.454 29.036 391.726 27.9157 391.726 26.5767C391.726 25.2244 391.454 24.0843 390.911 23.1562C390.38 22.2282 389.565 21.5256 388.464 21.0483C387.377 20.5578 386.005 20.3125 384.348 20.3125H378.541V54H369.93ZM391.925 35.4659L402.047 54H392.541L382.638 35.4659H391.925ZM406.68 54V13.2727H434.124V20.3722H415.291V30.0767H432.712V37.1761H415.291V46.9006H434.203V54H406.68Z" fill="black"/>
</g>
<rect x="8" y="4" width="54" height="54" fill="black"/>
<path d="M41.1406 25.2031C41.0156 23.9427 40.4792 22.9635 39.5313 22.2656C38.5833 21.5677 37.2969 21.2187 35.6719 21.2187C34.5677 21.2187 33.6354 21.375 32.875 21.6875C32.1146 21.9896 31.5313 22.4115 31.125 22.9531C30.7292 23.4948 30.5313 24.1094 30.5313 24.7969C30.5104 25.3698 30.6302 25.8698 30.8906 26.2969C31.1615 26.724 31.5313 27.0937 32 27.4062C32.4688 27.7083 33.0104 27.974 33.625 28.2031C34.2396 28.4219 34.8958 28.6094 35.5938 28.7656L38.4688 29.4531C39.8646 29.7656 41.1458 30.1823 42.3125 30.7031C43.4792 31.224 44.4896 31.8646 45.3438 32.625C46.1979 33.3854 46.8594 34.2812 47.3281 35.3125C47.8073 36.3437 48.0521 37.526 48.0625 38.8594C48.0521 40.8177 47.5521 42.5156 46.5625 43.9531C45.5833 45.3802 44.1667 46.4896 42.3125 47.2812C40.4688 48.0625 38.2448 48.4531 35.6406 48.4531C33.0573 48.4531 30.8073 48.0573 28.8906 47.2656C26.9844 46.474 25.4948 45.3021 24.4219 43.75C23.3594 42.1875 22.8021 40.2552 22.75 37.9531H29.2969C29.3698 39.026 29.6771 39.9219 30.2188 40.6406C30.7708 41.349 31.5052 41.8854 32.4219 42.25C33.349 42.6042 34.3958 42.7812 35.5625 42.7812C36.7083 42.7812 37.7031 42.6146 38.5469 42.2812C39.401 41.9479 40.0625 41.4844 40.5313 40.8906C41 40.2969 41.2344 39.6146 41.2344 38.8437C41.2344 38.125 41.0208 37.5208 40.5938 37.0312C40.1771 36.5417 39.5625 36.125 38.75 35.7812C37.9479 35.4375 36.9635 35.125 35.7969 34.8437L32.3125 33.9687C29.6146 33.3125 27.4844 32.2865 25.9219 30.8906C24.3594 29.4948 23.5833 27.6146 23.5938 25.25C23.5833 23.3125 24.099 21.6198 25.1406 20.1719C26.1927 18.724 27.6354 17.5937 29.4688 16.7812C31.3021 15.9687 33.3854 15.5625 35.7188 15.5625C38.0938 15.5625 40.1667 15.9687 41.9375 16.7812C43.7188 17.5937 45.1042 18.724 46.0938 20.1719C47.0833 21.6198 47.5938 23.2969 47.625 25.2031H41.1406Z" fill="white"/>
<path d="M41.1406 25.2031L40.1455 25.3018L40.2349 26.2031H41.1406V25.2031ZM32.875 21.6875L33.2442 22.6169L33.2551 22.6124L32.875 21.6875ZM31.125 22.9531L30.3249 22.3531L30.3176 22.3631L31.125 22.9531ZM30.5312 24.7969L31.5306 24.8332L31.5312 24.8151V24.7969H30.5312ZM30.8906 26.2969L30.0368 26.8175L30.0414 26.825L30.0461 26.8324L30.8906 26.2969ZM32 27.4062L31.4453 28.2383L31.4518 28.2426L31.4583 28.2468L32 27.4062ZM33.625 28.2031L33.2756 29.1401L33.2826 29.1427L33.2897 29.1452L33.625 28.2031ZM35.5938 28.7656L35.8263 27.793L35.8193 27.7914L35.8122 27.7898L35.5938 28.7656ZM38.4688 29.4531L38.2362 30.4257L38.2432 30.4274L38.2503 30.429L38.4688 29.4531ZM42.3125 30.7031L41.9048 31.6163H41.9049L42.3125 30.7031ZM45.3438 32.625L46.0087 31.8781L45.3438 32.625ZM47.3281 35.3125L46.4177 35.7263L46.4212 35.7339L47.3281 35.3125ZM48.0625 38.8594L49.0626 38.8647L49.0625 38.8516L48.0625 38.8594ZM46.5625 43.9531L45.7388 43.3861L45.7379 43.3874L46.5625 43.9531ZM42.3125 47.2812L42.7027 48.202L42.7052 48.2009L42.3125 47.2812ZM28.8906 47.2656L28.5071 48.1892L28.5089 48.1899L28.8906 47.2656ZM24.4219 43.75L23.5949 44.3123L23.5993 44.3186L24.4219 43.75ZM22.75 37.9531V36.9531H21.7271L21.7503 37.9757L22.75 37.9531ZM29.2969 37.9531L30.2946 37.8853L30.2312 36.9531H29.2969V37.9531ZM30.2188 40.6406L29.4201 41.2425L29.425 41.249L29.43 41.2554L30.2188 40.6406ZM32.4219 42.25L32.0523 43.1793L32.065 43.1842L32.4219 42.25ZM38.5469 42.2812L38.1833 41.3497L38.1794 41.3512L38.5469 42.2812ZM40.5312 40.8906L41.3161 41.5103L40.5312 40.8906ZM40.5938 37.0312L39.8322 37.6794L39.8402 37.6886L40.5938 37.0312ZM38.75 35.7812L38.3561 36.7004L38.3604 36.7022L38.75 35.7812ZM35.7969 34.8438L35.5533 35.8137L35.5625 35.8159L35.7969 34.8438ZM32.3125 33.9688L32.5561 32.9988L32.5489 32.9971L32.3125 33.9688ZM25.9219 30.8906L25.2557 31.6364L25.2557 31.6364L25.9219 30.8906ZM23.5938 25.25L24.5938 25.2544L24.5937 25.2446L23.5938 25.25ZM25.1406 20.1719L24.3316 19.584L24.3289 19.5879L25.1406 20.1719ZM29.4688 16.7812L29.0636 15.867L29.4688 16.7812ZM41.9375 16.7812L41.5205 17.6901L41.5225 17.6911L41.9375 16.7812ZM46.0938 20.1719L45.2682 20.7361L45.2682 20.7361L46.0938 20.1719ZM47.625 25.2031V26.2031H48.6415L48.6249 25.1867L47.625 25.2031ZM42.1357 25.1044C41.9852 23.5862 41.3189 22.34 40.1241 21.4603L38.9384 23.0709C39.6394 23.587 40.0461 24.2992 40.1455 25.3018L42.1357 25.1044ZM40.1241 21.4603C38.9499 20.5958 37.4308 20.2187 35.6719 20.2187V22.2187C37.163 22.2187 38.2167 22.5396 38.9384 23.0709L40.1241 21.4603ZM35.6719 20.2187C34.4795 20.2187 33.4096 20.3867 32.4949 20.7626L33.2551 22.6124C33.8613 22.3633 34.6559 22.2187 35.6719 22.2187V20.2187ZM32.5058 20.7581C31.61 21.114 30.8628 21.636 30.325 22.3531L31.925 23.5531C32.1997 23.1869 32.6191 22.8652 33.2442 22.6169L32.5058 20.7581ZM30.3176 22.3631C29.7933 23.0805 29.5312 23.9029 29.5312 24.7969H31.5312C31.5312 24.3159 31.665 23.909 31.9324 23.5431L30.3176 22.3631ZM29.5319 24.7605C29.505 25.4999 29.66 26.1995 30.0368 26.8175L31.7444 25.7763C31.6004 25.54 31.5158 25.2397 31.5306 24.8332L29.5319 24.7605ZM30.0461 26.8324C30.3999 27.3903 30.8736 27.8572 31.4453 28.2383L32.5547 26.5742C32.1889 26.3303 31.923 26.0576 31.7351 25.7613L30.0461 26.8324ZM31.4583 28.2468C31.997 28.594 32.6051 28.8901 33.2756 29.1401L33.9744 27.2661C33.4157 27.0578 32.9405 26.8227 32.5417 26.5657L31.4583 28.2468ZM33.2897 29.1452C33.9459 29.3788 34.6415 29.5772 35.3753 29.7415L35.8122 27.7898C35.1502 27.6416 34.5332 27.4649 33.9603 27.261L33.2897 29.1452ZM35.3612 29.7382L38.2362 30.4257L38.7013 28.4805L35.8263 27.793L35.3612 29.7382ZM38.2503 30.429C39.5887 30.7286 40.8057 31.1256 41.9048 31.6163L42.7202 29.79C41.486 29.239 40.1405 28.8026 38.6872 28.4773L38.2503 30.429ZM41.9049 31.6163C42.9886 32.1001 43.9098 32.6873 44.6788 33.3719L46.0087 31.8781C45.0694 31.0419 43.9697 30.3478 42.7201 29.79L41.9049 31.6163ZM44.6788 33.3719C45.4299 34.0405 46.0073 34.8232 46.4178 35.7263L48.2385 34.8987C47.7115 33.7393 46.966 32.7303 46.0087 31.8781L44.6788 33.3719ZM46.4212 35.7339C46.8307 36.615 47.053 37.6523 47.0625 38.8672L49.0625 38.8516C49.0511 37.3997 48.7839 36.0725 48.235 34.8911L46.4212 35.7339ZM47.0625 38.8541C47.053 40.6371 46.601 42.1337 45.7388 43.3861L47.3862 44.5202C48.5032 42.8976 49.0511 40.9983 49.0625 38.8647L47.0625 38.8541ZM45.7379 43.3874C44.8829 44.6335 43.6287 45.6319 41.9198 46.3616L42.7052 48.2009C44.7046 47.3472 46.2837 46.1269 47.3871 44.5189L45.7379 43.3874ZM41.9223 46.3605C40.2331 47.0763 38.1492 47.4531 35.6406 47.4531V49.4531C38.3404 49.4531 40.7044 49.0487 42.7027 48.202L41.9223 46.3605ZM35.6406 47.4531C33.1572 47.4531 31.0422 47.0724 29.2724 46.3414L28.5089 48.1899C30.5724 49.0422 32.9574 49.4531 35.6406 49.4531V47.4531ZM29.2742 46.3421C27.528 45.6169 26.198 44.5607 25.2445 43.1814L23.5993 44.3186C24.7916 46.0435 26.4408 47.331 28.5071 48.1891L29.2742 46.3421ZM25.2488 43.1877C24.3164 41.8165 23.7984 40.0822 23.7497 37.9305L21.7503 37.9757C21.8057 40.4282 22.4024 42.5585 23.5949 44.3123L25.2488 43.1877ZM22.75 38.9531H29.2969V36.9531H22.75V38.9531ZM28.2992 38.0209C28.3826 39.2492 28.7406 40.3408 29.4201 41.2425L31.0174 40.0388C30.6136 39.503 30.3569 38.8029 30.2946 37.8853L28.2992 38.0209ZM29.43 41.2554C30.102 42.1175 30.9872 42.7556 32.0523 43.1792L32.7914 41.3208C32.0232 41.0153 31.4397 40.5804 31.0075 40.0259L29.43 41.2554ZM32.065 43.1842C33.1241 43.5888 34.2949 43.7812 35.5625 43.7812V41.7812C34.4968 41.7812 33.5738 41.6196 32.7787 41.3158L32.065 43.1842ZM35.5625 43.7812C36.8023 43.7812 37.9273 43.6012 38.9143 43.2113L38.1794 41.3512C37.479 41.6279 36.6143 41.7812 35.5625 41.7812V43.7812ZM38.9104 43.2128C39.8952 42.8285 40.716 42.2705 41.3161 41.5103L39.7464 40.271C39.409 40.6983 38.9069 41.0673 38.1833 41.3497L38.9104 43.2128ZM41.3161 41.5103C41.9271 40.7364 42.2344 39.8348 42.2344 38.8438H40.2344C40.2344 39.3943 40.0729 39.8573 39.7464 40.271L41.3161 41.5103ZM42.2344 38.8438C42.2344 37.9109 41.9506 37.0654 41.3473 36.3739L39.8402 37.6886C40.0911 37.9763 40.2344 38.3391 40.2344 38.8438H42.2344ZM41.3553 36.3831C40.8072 35.7391 40.0451 35.2434 39.1396 34.8603L38.3604 36.7022C39.0799 37.0066 39.547 37.3442 39.8322 37.6794L41.3553 36.3831ZM39.1439 34.8621C38.2751 34.4898 37.2338 34.1615 36.0312 33.8716L35.5625 35.8159C36.6933 36.0885 37.6207 36.3852 38.3561 36.7004L39.1439 34.8621ZM36.0404 33.8739L32.5561 32.9989L32.0689 34.9386L35.5533 35.8136L36.0404 33.8739ZM32.5489 32.9971C29.9606 32.3675 27.9947 31.4014 26.5881 30.1449L25.2557 31.6364C26.9741 33.1715 29.2686 34.2575 32.0761 34.9404L32.5489 32.9971ZM26.5881 30.1449C25.2679 28.9655 24.5844 27.3736 24.5937 25.2544L22.5938 25.2456C22.5823 27.8555 23.4509 30.0241 25.2557 31.6364L26.5881 30.1449ZM24.5937 25.2446C24.5844 23.4993 25.045 22.0172 25.9524 20.7559L24.3289 19.5879C23.153 21.2224 22.5823 23.1257 22.5938 25.2554L24.5937 25.2446ZM25.9496 20.7597C26.8861 19.4708 28.1818 18.4454 29.8739 17.6955L29.0636 15.867C27.0891 16.7421 25.4993 17.9771 24.3316 19.5841L25.9496 20.7597ZM29.8739 17.6955C31.5605 16.948 33.5023 16.5625 35.7188 16.5625V14.5625C33.2685 14.5625 31.0437 14.9895 29.0636 15.867L29.8739 17.6955ZM35.7188 16.5625C37.9807 16.5625 39.9059 16.9493 41.5205 17.6901L42.3545 15.8724C40.4274 14.9882 38.2068 14.5625 35.7188 14.5625V16.5625ZM41.5225 17.6911C43.1578 18.437 44.393 19.4557 45.2682 20.7361L46.9193 19.6076C45.8153 17.9922 44.2797 16.7505 42.3525 15.8714L41.5225 17.6911ZM45.2682 20.7361C46.1376 22.0083 46.5968 23.4912 46.6251 25.2195L48.6249 25.1867C48.5907 23.1025 48.029 21.2313 46.9193 19.6076L45.2682 20.7361ZM47.625 24.2031H41.1406V26.2031H47.625V24.2031Z" fill="white"/>
<defs>
<filter id="filter0_d_1_7" x="88.2273" y="12.7159" width="349.976" height="49.8608" filterUnits="userSpaceOnUse" color-interpolation-filters="sRGB">
<feFlood flood-opacity="0" result="BackgroundImageFix"/>
<feColorMatrix in="SourceAlpha" type="matrix" values="0 0 0 0 0 0 0 0 0 0 0 0 0 0 0 0 0 0 127 0" result="hardAlpha"/>
<feOffset dy="4"/>
<feGaussianBlur stdDeviation="2"/>
<feComposite in2="hardAlpha" operator="out"/>
<feColorMatrix type="matrix" values="0 0 0 0 0 0 0 0 0 0 0 0 0 0 0 0 0 0 0.25 0"/>
<feBlend mode="normal" in2="BackgroundImageFix" result="effect1_dropShadow_1_7"/>
<feBlend mode="normal" in="SourceGraphic" in2="effect1_dropShadow_1_7" result="shape"/>
</filter>
</defs>
</svg>
